<?xml version="1.0" encoding="UTF-8"?>
<svg id="Layer_2" data-name="Layer 2" xmlns="http://www.w3.org/2000/svg" viewBox="0 0 236.82 65.31">
  <g id="Layer_1-2" data-name="Layer 1">
    <g>
      <rect x="0" y="61.37" width="49.13" height="3.95"/>
      <path d="M131.75,35.05l-2.26,5.88h1.06l.55-1.56h2.35l.55,1.56h1.1l-2.27-5.88h-1.1ZM131.38,38.59l.89-2.53h.02l.88,2.53h-1.79ZM138.84,12.12h-3.95c0-4.51-3.67-8.17-8.17-8.17s-8.17,3.67-8.17,8.17,3.67,8.17,8.17,8.17v3.95c-6.68,0-12.12-5.44-12.12-12.12S120.04,0,126.72,0s12.12,5.44,12.12,12.12M115.63,40.04h2.99v.89h-4.02v-5.88h1.03v4.99ZM15.27,12.13c1.59,1.49,2.38,3.48,2.16,5.45-.5,4.57-5.11,6.66-9.18,6.66v-3.95c1.98,0,5.01-.84,5.26-3.14.08-.72-.28-1.52-.94-2.15-.83-.78-2.19-1.09-3.4-1.31-.27-.05-.55-.1-.82-.14h-.08c-1.26-.23-2.57-.46-3.88-.94C1.64,11.6,0,9.4,0,6.72,0,2.83,3.47,0,8.26,0c3.09,0,5.91,1.14,7.55,3.04l1.29,1.49-2.99,2.58-1.29-1.49c-.89-1.03-2.64-1.67-4.56-1.67-2.54,0-4.31,1.14-4.31,2.77,0,1.26.98,1.88,1.8,2.18.97.36,2.05.54,3.19.74.32.05.63.11.95.17,1.89.35,3.85.87,5.39,2.32M99.48,17c0,3.99-3.24,7.23-7.23,7.23h-8.92v-3.95h8.92c1.81,0,3.29-1.47,3.29-3.29s-1.47-3.29-3.29-3.29h-8.92v-3.95h7.42c1.61,0,2.91-1.31,2.91-2.91s-1.31-2.91-2.91-2.91h-7.42V0h7.42c3.78,0,6.86,3.08,6.86,6.86,0,1.48-.49,2.92-1.38,4.11,2.02,1.34,3.26,3.6,3.26,6.04M203.65,3.95h-16.35V0h16.35v3.95ZM64.25,0h3.95v24.24h-3.95V0ZM152.24,35.05h1.05l-1.62,5.88h-1.04l-1.18-4.5h-.02l-1.2,4.5h-1.06l-1.55-5.88h1.05l1.06,4.5h.02l1.19-4.5h1.05l1.15,4.5h.02l1.1-4.5ZM45.18,0h3.95v24.24h-3.95v-10.15h-12.59v-3.95h12.59V0ZM224.99,7.89h3.95v16.35h-3.95V7.89ZM227.5,35.05h1.43v5.88h-.98v-4.54h-.02l-1.63,4.54h-.85l-1.63-4.54h-.02v4.54h-.98v-5.88h1.45l1.62,4.6h.02l1.58-4.6ZM236.82,3.95h-19.73V0h19.73v3.95ZM210.98,39.38c0-.23-.03-.42-.09-.58-.06-.15-.13-.28-.22-.38-.09-.1-.18-.17-.28-.21-.1-.05-.2-.07-.28-.08v-.02s.13-.05.23-.1.21-.13.33-.24c.11-.11.21-.26.29-.45.08-.18.12-.41.12-.7,0-.5-.16-.89-.49-1.17-.32-.28-.81-.42-1.46-.42h-2.81v5.88h1.03v-2.42h1.52c.24,0,.43.03.58.09.15.06.27.15.36.28.09.13.15.29.18.49.03.2.05.43.05.7,0,.14,0,.29.02.45.01.15.06.29.14.42h1.1c-.11-.12-.19-.32-.24-.6-.05-.28-.08-.6-.08-.94M209.79,37.49c-.17.16-.42.23-.75.23h-1.69v-1.84h1.67c.13,0,.26.01.38.03.12.02.23.07.33.13.1.07.17.16.23.28.05.12.08.27.08.46,0,.31-.08.55-.26.71M193.31,35.05h1.03v5.88h-1.03v-5.88ZM187.31,20.29h16.35v3.95h-16.35v-3.95ZM177.7,35.05h4.06v.89h-3.03v1.54h2.66v.84h-2.66v2.61h-1.03v-5.88ZM197.08,14.09h-9.77v-3.95h9.77v3.95ZM157.91,20.29h12.4v3.95h-14.37c-1.09,0-1.97-.89-1.97-1.97V0h3.95v20.29Z"/>
    </g>
  </g>
</svg>